<?xml version="1.0" encoding="UTF-8"?>
<svg width="100" height="100" viewBox="0 0 100 100" xmlns="http://www.w3.org/2000/svg">
  <defs>
    <pattern id="circuit" x="0" y="0" width="100" height="100" patternUnits="userSpaceOnUse">
      <!-- Circuit paths -->
      <path d="M15,15 L85,15 M50,15 L50,85 M15,50 L85,50 M15,85 L85,85" stroke="currentColor" stroke-width="0.5" fill="none"/>
      <!-- Connection points -->
      <circle cx="15" cy="15" r="2" fill="currentColor"/>
      <circle cx="50" cy="15" r="2" fill="currentColor"/>
      <circle cx="85" cy="15" r="2" fill="currentColor"/>
      <circle cx="15" cy="50" r="2" fill="currentColor"/>
      <circle cx="50" cy="50" r="2" fill="currentColor"/>
      <circle cx="85" cy="50" r="2" fill="currentColor"/>
      <circle cx="15" cy="85" r="2" fill="currentColor"/>
      <circle cx="50" cy="85" r="2" fill="currentColor"/>
      <circle cx="85" cy="85" r="2" fill="currentColor"/>
      <!-- Diagonal paths -->
      <path d="M15,15 L50,50 M85,15 L50,50 M15,85 L50,50 M85,85 L50,50" stroke="currentColor" stroke-width="0.3" fill="none"/>
    </pattern>
  </defs>
  <rect width="100" height="100" fill="url(#circuit)"/>
</svg>
